<!DOCTYPE svg PUBLIC "-//W3C//DTD SVG 1.1//EN" "http://www.w3.org/Graphics/SVG/1.1/DTD/svg11.dtd">

<!-- Uploaded to: SVG Repo, www.svgrepo.com, Transformed by: SVG Repo Mixer Tools -->
<svg width="23px" height="20px" viewBox="0 0 24 24" fill="none" xmlns="http://www.w3.org/2000/svg" stroke="#FFFFFF">

<g id="SVGRepo_bgCarrier" stroke-width="0"/>

<g id="SVGRepo_tracerCarrier" stroke-linecap="round" stroke-linejoin="round"/>

<g id="SVGRepo_iconCarrier"> <path d="M8.81 2L5.19 5.63" stroke="#FFFFFF" stroke-width="1.5" stroke-miterlimit="10" stroke-linecap="round" stroke-linejoin="round"/> <path d="M15.19 2L18.81 5.63" stroke="#FFFFFF" stroke-width="1.5" stroke-miterlimit="10" stroke-linecap="round" stroke-linejoin="round"/> <path d="M2 7.84998C2 5.99998 2.99 5.84998 4.22 5.84998H19.78C21.01 5.84998 22 5.99998 22 7.84998C22 9.99998 21.01 9.84998 19.78 9.84998H4.22C2.99 9.84998 2 9.99998 2 7.84998Z" stroke="#FFFFFF" stroke-width="1.5"/> <path d="M9.76001 14V17.55" stroke="#FFFFFF" stroke-width="1.5" stroke-linecap="round"/> <path d="M14.36 14V17.55" stroke="#FFFFFF" stroke-width="1.5" stroke-linecap="round"/> <path d="M3.5 10L4.91 18.64C5.23 20.58 6 22 8.86 22H14.89C18 22 18.46 20.64 18.82 18.76L20.5 10" stroke="#FFFFFF" stroke-width="1.5" stroke-linecap="round"/> </g>

</svg>