<!DOCTYPE svg PUBLIC "-//W3C//DTD SVG 1.1//EN" "http://www.w3.org/Graphics/SVG/1.1/DTD/svg11.dtd">

<!-- Uploaded to: SVG Repo, www.svgrepo.com, Transformed by: SVG Repo Mixer Tools -->
<svg width="25px" height="28px" viewBox="0 -0.5 25 25" fill="none" xmlns="http://www.w3.org/2000/svg">

<g id="SVGRepo_bgCarrier" stroke-width="0"/>

<g id="SVGRepo_tracerCarrier" stroke-linecap="round" stroke-linejoin="round"/>

<g id="SVGRepo_iconCarrier"> <path d="M6.87189 20.0803C7.2316 19.8749 7.35669 19.4168 7.1513 19.0571C6.94591 18.6974 6.48781 18.5723 6.12811 18.7777L6.87189 20.0803ZM5.5 20H4.75C4.75 20.2673 4.89227 20.5144 5.12345 20.6486C5.35463 20.7828 5.63976 20.7838 5.87189 20.6513L5.5 20ZM5.5 4L5.87189 3.3487C5.63976 3.21615 5.35463 3.21717 5.12345 3.35138C4.89227 3.48559 4.75 3.73269 4.75 4H5.5ZM6.12811 5.2223C6.48781 5.42769 6.94591 5.3026 7.1513 4.94289C7.35669 4.58319 7.2316 4.12509 6.87189 3.9197L6.12811 5.2223ZM5.90798 18.9686C5.65368 19.2955 5.71259 19.7667 6.03955 20.021C6.36652 20.2753 6.83772 20.2164 7.09202 19.8894L5.90798 18.9686ZM15.092 9.60345C15.3463 9.27648 15.2874 8.80528 14.9604 8.55098C14.6335 8.29668 14.1623 8.35559 13.908 8.68255L15.092 9.60345ZM6.12792 18.7778C5.76828 18.9833 5.64331 19.4414 5.8488 19.8011C6.0543 20.1607 6.51243 20.2857 6.87208 20.0802L6.12792 18.7778ZM14.8721 15.5092C15.2317 15.3037 15.3567 14.8456 15.1512 14.4859C14.9457 14.1263 14.4876 14.0013 14.1279 14.2068L14.8721 15.5092ZM14.8721 8.49181C14.5124 8.28631 14.0543 8.41127 13.8488 8.77091C13.6433 9.13055 13.7683 9.58869 14.1279 9.79419L14.8721 8.49181ZM19.5 12L19.8721 12.6512C20.1058 12.5177 20.25 12.2691 20.25 12C20.25 11.7309 20.1058 11.4823 19.8721 11.3488L19.5 12ZM14.1279 14.2058C13.7683 14.4113 13.6433 14.8694 13.8488 15.2291C14.0543 15.5887 14.5124 15.7137 14.8721 15.5082L14.1279 14.2058ZM14.1279 9.79416C14.4875 9.99969 14.9456 9.87477 15.1512 9.51514C15.3567 9.15551 15.2318 8.69736 14.8721 8.49184L14.1279 9.79416ZM6.87214 3.91984C6.51251 3.71431 6.05436 3.83923 5.84884 4.19886C5.64331 4.55849 5.76823 5.01664 6.12786 5.22216L6.87214 3.91984ZM7.09202 4.11055C6.83772 3.78359 6.36652 3.72468 6.03955 3.97898C5.71259 4.23328 5.65368 4.70448 5.90798 5.03145L7.09202 4.11055ZM13.908 15.3174C14.1623 15.6444 14.6335 15.7033 14.9604 15.449C15.2874 15.1947 15.3463 14.7235 15.092 14.3966L13.908 15.3174ZM6.12811 18.7777L5.12811 19.3487L5.87189 20.6513L6.87189 20.0803L6.12811 18.7777ZM6.25 20V4H4.75V20H6.25ZM5.12811 4.6513L6.12811 5.2223L6.87189 3.9197L5.87189 3.3487L5.12811 4.6513ZM7.09202 19.8894L15.092 9.60345L13.908 8.68255L5.90798 18.9686L7.09202 19.8894ZM6.87208 20.0802L14.8721 15.5092L14.1279 14.2068L6.12792 18.7778L6.87208 20.0802ZM14.1279 9.79419L19.1279 12.6512L19.8721 11.3488L14.8721 8.49181L14.1279 9.79419ZM19.1279 11.3488L14.1279 14.2058L14.8721 15.5082L19.8721 12.6512L19.1279 11.3488ZM14.8721 8.49184L6.87214 3.91984L6.12786 5.22216L14.1279 9.79416L14.8721 8.49184ZM5.90798 5.03145L13.908 15.3174L15.092 14.3966L7.09202 4.11055L5.90798 5.03145Z" fill="#ffffff"/> </g>

</svg>