<!DOCTYPE svg PUBLIC "-//W3C//DTD SVG 1.1//EN" "http://www.w3.org/Graphics/SVG/1.1/DTD/svg11.dtd">

<!-- Uploaded to: SVG Repo, www.svgrepo.com, Transformed by: SVG Repo Mixer Tools -->
<svg fill="#ffffff" height="35px" width="34px" version="1.1" id="Layer_1" xmlns="http://www.w3.org/2000/svg" xmlns:xlink="http://www.w3.org/1999/xlink" viewBox="-51.2 -51.2 614.40 614.40" xml:space="preserve" transform="matrix(-1, 0, 0, 1, 0, 0)rotate(0)" stroke="#ffffff" stroke-width="0.0051200099999999995">

<g id="SVGRepo_bgCarrier" stroke-width="0" transform="translate(0,0), scale(1)">

<rect x="-51.2" y="-51.2" width="614.40" height="614.40" rx="307.2" fill="#FF0043" strokewidth="0"/>

</g>

<g id="SVGRepo_tracerCarrier" stroke-linecap="round" stroke-linejoin="round" stroke="#CCCCCC" stroke-width="5.12001"/>

<g id="SVGRepo_iconCarrier"> <g> <g> <path d="M325.171,69.17c-103.018,0-186.831,83.811-186.831,186.831s83.811,186.831,186.831,186.831 s186.831-83.811,186.831-186.831S428.189,69.17,325.171,69.17z M325.171,407.757c-83.679,0-151.758-68.078-151.758-151.758 s68.079-151.757,151.758-151.757s151.758,68.078,151.758,151.758S408.85,407.757,325.171,407.757z"/> </g> </g> <g> <g> <path d="M325.171,126.291c-71.523,0-129.71,58.187-129.71,129.709s58.187,129.709,129.71,129.709 c71.522,0,129.709-58.187,129.709-129.709S396.691,126.291,325.171,126.291z M325.171,350.635 c-52.184,0-94.637-42.453-94.637-94.636s42.453-94.636,94.637-94.636c52.182,0,94.636,42.453,94.636,94.636 S377.352,350.635,325.171,350.635z"/> </g> </g> <g> <g> <path d="M115.512,80.677c-9.685,0-17.536,7.852-17.536,17.536v76.158H84.5V97.731c0-9.685-7.852-17.536-17.536-17.536 c-9.685,0-17.536,7.852-17.536,17.536v76.641H35.073V97.731c0-9.685-7.852-17.536-17.536-17.536C7.852,80.195,0,88.046,0,97.731 v102.831c0,0.492,0.034,0.976,0.074,1.459c-0.185,2.805,0.071,5.641,0.809,8.417l7.603,22.528 c3.067,9.922,11.091,26.178,30.719,26.178h9.829v166.149c0,9.685,7.852,17.536,17.536,17.536c9.685,0,17.536-7.852,17.536-17.536 v-166.15h9.82c19.659,0,27.294-17.946,30.167-24.702l0.281-0.661l7.651-23.065l0.023-0.097c0.636-1.816,1-3.76,1-5.794V98.214 C133.049,88.529,125.197,80.677,115.512,80.677z M91.542,221.361c-0.318,0.74-0.775,1.778-1.23,2.71H42.488 c-0.163-0.434-0.341-0.955-0.53-1.577l-4.417-13.049h57.954L91.542,221.361z"/> </g> </g> </g>

</svg>